# xmcd
#
# Track frame offsets:
#  150
#  1814
#  27179
#  54978
#  72277
#  92818
#  111580
#  132073
#  154199
#  173578
#  193297
#  216726
#  232635
#  252907
#  271065
#
# Disc length: 3634 seconds
#
# Revision: 0
# Processed by: cddbd v1.5.1PL0 Copyright (c) Steve Scherf et al.
# Submitted via: AltoMP3_Maker 3.0
#
DISCID=c90e300f
DTITLE=South By Southwest - Live On The Radio
DYEAR=1900
DGENRE=
TTITLE0=Ballad of Johnny and Mary
TTITLE1=River In The Rain
TTITLE2=New Boots On a Brand New Highway
TTITLE3=Something Foolish
TTITLE4=Richoche
TTITLE5=Me and My Uncle
TTITLE6=Deep In The West
TTITLE7=Freightliner
TTITLE8=The Girl Just Loves To Dance
TTITLE9=New Mexico Rain
TTITLE10=Let Love Be True
TTITLE11=Drifters Wind
TTITLE12=Two Hearts In The Desert Wind
TTITLE13=None
TTITLE14=None
EXTD=
EXTT0=
EXTT1=
EXTT2=
EXTT3=
EXTT4=
EXTT5=
EXTT6=
EXTT7=
EXTT8=
EXTT9=
EXTT10=
EXTT11=
EXTT12=
EXTT13=
EXTT14=
PLAYORDER=
